# xmcd
#
# Track frame offsets:
#	150
#	10406
#	23690
#	37273
#	50949
#	64650
#	80278
#	98382
#	122170
#	145944
#	181417
#	197877
#	217906
#	232787
#
# Disc length: 3294
#
# Revision: 1
# Processed by: cddbd v1.5.1PL0 Copyright (c) Steve Scherf et al.
# Submitted via: EasyCDDAExtractor 4.6.9.1
# Normalized: r0:TDELIM( - )
#
DISCID=bb0cdc0e
DTITLE=Various Artist - Absolutely The Best Of Blues Volume 2
DYEAR=2000
DGENRE=Blues
TTITLE0=Peppermint Harris - Bad, Bad Wiskey
TTITLE1=Otis Rush - I Can't Quit You Baby
TTITLE2=Buddy Guy - This Is The End
TTITLE3=Sunnyland Slim - Highway 61
TTITLE4=Big Joe Turner - Nighttime Is The Right Time
TTITLE5=Memphis Slim - Born With The Blues
TTITLE6=Lightnin' Hopkins - Little School Girl
TTITLE7=Mississippi Fred McDowell - The Train I Ride
TTITLE8=Big Joe Williams with Sonny Terry, Brownie McGhee and Lightnin' Hopkins - Early Morning Blues
TTITLE9=John Lee Hooker - Hard Times
TTITLE10=Mississippi John Hurt - Make Me A Pallet On Your Floor
TTITLE11=Otis Spann - Country Boy Blues
TTITLE12=Jimmy Reed - Can't Stand To Love
TTITLE13=Big Bill Broonzy - Baby Don't Go
EXTD=
EXTT0=
EXTT1=
EXTT2=
EXTT3=
EXTT4=
EXTT5=
EXTT6=
EXTT7=
EXTT8=
EXTT9=
EXTT10=
EXTT11=
EXTT12=
EXTT13=
PLAYORDER=
